<svg width="24" height="24" viewBox="0 0 24 24" fill="none" xmlns="http://www.w3.org/2000/svg">
<path d="M18.9999 10.5V8.79999H14.5999V15.2H16.2999V13.2H18.2999V11.5H16.2999V10.5H18.9999ZM11.6999 8.79999H13.3999V15.2H11.6999V8.79999ZM8.0999 10.4C8.4999 10.4 8.9999 10.6 9.2999 10.9L10.4999 9.89999C9.8999 9.19999 8.9999 8.79999 8.0999 8.79999C6.2999 8.79999 4.8999 10.2 4.8999 12C4.8999 13.8 6.2999 15.2 8.0999 15.2C9.0999 15.2 9.8999 14.8 10.4999 14.1V11.6H7.6999V12.8H8.8999V13.4C8.6999 13.5 8.3999 13.6 8.0999 13.6C7.1999 13.6 6.4999 12.9 6.4999 12C6.4999 11.2 7.1999 10.4 8.0999 10.4Z" fill="#1DA1F2"/>
<path d="M20.5 2.01999H3.5C2.26 2.01999 1.25 3.02699 1.25 4.26699V19.774C1.25 21.012 2.26 22.02 3.5 22.02H20.5C21.74 22.02 22.75 21.012 22.75 19.774V4.26699C22.75 3.02699 21.74 2.01999 20.5 2.01999ZM21.25 19.774C21.25 20.184 20.914 20.52 20.5 20.52H3.5C3.086 20.52 2.75 20.184 2.75 19.774V4.26699C2.75 3.85499 3.086 3.51999 3.5 3.51999H20.5C20.914 3.51999 21.25 3.85499 21.25 4.26699V19.774Z" fill="#1DA1F2"/>
</svg>
