<svg width="17" height="17" viewBox="0 0 17 17" fill="none" xmlns="http://www.w3.org/2000/svg">
<path d="M16.0445 15.2054L13.147 12.3079C14.196 11.065 14.8333 9.46108 14.8333 7.70833C14.8333 3.77375 11.6428 0.583328 7.70825 0.583328C3.77367 0.583328 0.583252 3.77375 0.583252 7.70833C0.583252 11.6429 3.77367 14.8333 7.70825 14.8333C9.46179 14.8333 11.0649 14.1968 12.3063 13.1471L15.2038 16.0446C15.3201 16.1602 15.4729 16.2187 15.6233 16.2187C15.7738 16.2187 15.9281 16.161 16.0429 16.0446C16.2765 15.8126 16.2765 15.4374 16.0445 15.2054ZM1.77075 7.70833C1.77075 4.43479 4.43471 1.77083 7.70825 1.77083C10.9818 1.77083 13.6458 4.43479 13.6458 7.70833C13.6458 10.9819 10.9818 13.6458 7.70825 13.6458C4.43471 13.6458 1.77075 10.9819 1.77075 7.70833Z" fill="#8899A6"/>
</svg>
