<svg width="24" height="18" viewBox="0 0 24 18" fill="none" xmlns="http://www.w3.org/2000/svg">
<path d="M23.77 12.67C23.478 12.377 23.003 12.377 22.71 12.67L20.49 14.89V4.64998C20.49 2.58198 18.807 0.899975 16.74 0.899975H10.89C10.476 0.899975 10.14 1.23598 10.14 1.64998C10.14 2.06398 10.476 2.39998 10.89 2.39998H16.74C17.98 2.39998 18.99 3.40998 18.99 4.64998V14.89L16.77 12.67C16.477 12.377 16.002 12.377 15.71 12.67C15.418 12.963 15.416 13.438 15.71 13.73L19.21 17.23C19.355 17.377 19.547 17.45 19.74 17.45C19.933 17.45 20.123 17.378 20.27 17.23L23.77 13.73C24.064 13.438 24.064 12.963 23.77 12.67ZM13.11 15.95H7.25997C6.01997 15.95 5.00997 14.94 5.00997 13.7V3.45998L7.22997 5.67998C7.37797 5.82698 7.56997 5.89997 7.76197 5.89997C7.95397 5.89997 8.14597 5.82698 8.29197 5.67998C8.58497 5.38698 8.58497 4.91197 8.29197 4.61998L4.79197 1.11998C4.49897 0.825975 4.02397 0.825975 3.73197 1.11998L0.231975 4.61998C-0.0620254 4.91197 -0.0620254 5.38698 0.231975 5.67998C0.525975 5.97298 0.998975 5.97298 1.29197 5.67998L3.51197 3.45998V13.7C3.51197 15.768 5.19497 17.45 7.26197 17.45H13.112C13.526 17.45 13.862 17.114 13.862 16.7C13.862 16.286 13.525 15.95 13.112 15.95H13.11Z" fill="#0F1419"/>
</svg>
